<?xml version="1.0" encoding="UTF-8"?>
<svg version="1.1" xmlns="http://www.w3.org/2000/svg" width="1200" height="1200">
<path d="M0 0 C2.99201587 0.0046087 5.98362289 -0.00222865 8.97558594 -0.02050781 C30.83771419 -0.15258582 52.33791936 0.95365238 74.07446289 3.31567383 C75.01861053 3.41800323 75.96275818 3.52033264 76.93551636 3.62576294 C81.74620069 4.16248507 86.53536923 4.79594213 91.32446289 5.50317383 C92.01795837 5.60416382 92.71145386 5.70515381 93.42596436 5.8092041 C146.36674095 13.58728182 198.14341574 28.70370827 247.07446289 50.31567383 C248.23059082 50.82565918 249.38671875 51.33564453 250.57788086 51.86108398 C292.75353179 70.62594683 332.40614187 94.27571043 369.07446289 122.31567383 C369.71657715 122.80616211 370.35869141 123.29665039 371.02026367 123.80200195 C379.00984346 129.93339443 386.75931442 136.3259514 394.40063477 142.88452148 C396.15473138 144.38430479 397.91842461 145.87220236 399.68383789 147.35864258 C405.72904374 152.46610588 411.55323751 157.63847436 417.07836914 163.31567383 C418.94771464 165.18867754 420.87225973 166.91423412 422.88696289 168.62817383 C430.50097137 175.17622112 437.60650099 182.42165874 444.10961914 190.06958008 C446.26433594 192.53272553 448.49242157 194.91510812 450.73291016 197.30004883 C456.80231719 203.76395437 462.5345553 210.38849253 468.07446289 217.31567383 C469.05574511 218.50725492 470.03894334 219.69725979 471.02368164 220.88598633 C491.25836579 245.3766856 509.25844937 271.76748311 525.07446289 299.31567383 C525.49598633 300.04979492 525.91750977 300.78391602 526.35180664 301.5402832 C529.33085464 306.76057759 532.21934669 312.02675821 535.07446289 317.31567383 C535.53820313 318.16935547 536.00194336 319.02303711 536.47973633 319.90258789 C570.24206922 382.30764809 591.45038381 451.47708751 600.82446289 521.69067383 C600.92569458 522.44112976 601.02692627 523.19158569 601.13122559 523.96478271 C601.85647828 529.40717108 602.49629464 534.85573345 603.07446289 540.31567383 C603.21590225 541.6500499 603.21590225 541.6500499 603.36019897 543.01138306 C605.13244576 560.41622841 605.41919692 577.76617558 605.39013672 595.24121094 C605.38552802 598.2332268 605.39236537 601.22483383 605.41064453 604.21679688 C605.54272253 626.07892513 604.43648434 647.57913029 602.07446289 669.31567383 C601.97213348 670.25982147 601.86980408 671.20396912 601.76437378 672.17672729 C601.22765165 676.98741163 600.59419459 681.77658016 599.88696289 686.56567383 C599.7859729 687.25916931 599.68498291 687.95266479 599.58093262 688.66717529 C591.8028549 741.60795189 576.68642845 793.38462668 555.07446289 842.31567383 C554.56447754 843.47180176 554.05449219 844.62792969 553.52905273 845.8190918 C534.76418989 887.99474272 511.11442629 927.64735281 483.07446289 964.31567383 C482.58397461 964.95778809 482.09348633 965.59990234 481.58813477 966.26147461 C475.45674229 974.2510544 469.06418532 982.00052535 462.50561523 989.6418457 C461.00583193 991.39594231 459.51793436 993.15963555 458.03149414 994.92504883 C452.92403084 1000.97025468 447.75166236 1006.79444845 442.07446289 1012.31958008 C440.20145918 1014.18892558 438.4759026 1016.11347066 436.76196289 1018.12817383 C430.2139156 1025.7421823 422.96847798 1032.84771193 415.32055664 1039.35083008 C412.85741119 1041.50554688 410.47502859 1043.73363251 408.09008789 1045.97412109 C401.62618235 1052.04352813 395.00164419 1057.77576624 388.07446289 1063.31567383 C386.8828818 1064.29695605 385.69287693 1065.28015428 384.50415039 1066.26489258 C360.01345112 1086.49957672 333.62265361 1104.49966031 306.07446289 1120.31567383 C305.3403418 1120.73719727 304.6062207 1121.1587207 303.84985352 1121.59301758 C298.62955913 1124.57206558 293.36337851 1127.46055763 288.07446289 1130.31567383 C287.22078125 1130.77941406 286.36709961 1131.2431543 285.48754883 1131.72094727 C223.08248863 1165.48328016 153.91304921 1186.69159474 83.69946289 1196.06567383 C82.94900696 1196.16690552 82.19855103 1196.26813721 81.425354 1196.37243652 C75.98296563 1197.09768921 70.53440327 1197.73750557 65.07446289 1198.31567383 C63.74008682 1198.45711319 63.74008682 1198.45711319 62.37875366 1198.60140991 C44.97390831 1200.37365669 27.62396114 1200.66040786 10.14892578 1200.63134766 C7.15690992 1200.62673896 4.16530289 1200.6335763 1.17333984 1200.65185547 C-20.68878841 1200.78393347 -42.18899357 1199.67769527 -63.92553711 1197.31567383 C-64.86968475 1197.21334442 -65.8138324 1197.11101501 -66.78659058 1197.00558472 C-71.59727491 1196.46886258 -76.38644344 1195.83540553 -81.17553711 1195.12817383 C-81.86903259 1195.02718384 -82.56252808 1194.92619385 -83.27703857 1194.82214355 C-136.21781517 1187.04406584 -187.99448996 1171.92763939 -236.92553711 1150.31567383 C-238.08166504 1149.80568848 -239.23779297 1149.29570313 -240.42895508 1148.77026367 C-282.604606 1130.00540083 -322.25721609 1106.35563723 -358.92553711 1078.31567383 C-359.8887085 1077.57994141 -359.8887085 1077.57994141 -360.87133789 1076.8293457 C-368.86091768 1070.69795323 -376.61038864 1064.30539625 -384.25170898 1057.74682617 C-386.00580559 1056.24704287 -387.76949883 1054.7591453 -389.53491211 1053.27270508 C-395.58011796 1048.16524178 -401.40431173 1042.9928733 -406.92944336 1037.31567383 C-408.79878886 1035.44267011 -410.72333394 1033.71711353 -412.73803711 1032.00317383 C-420.35204558 1025.45512654 -427.45757521 1018.20968892 -433.96069336 1010.56176758 C-436.11541016 1008.09862213 -438.34349579 1005.71623953 -440.58398438 1003.33129883 C-446.65339141 996.86739328 -452.38562952 990.24285513 -457.92553711 983.31567383 C-458.90681933 982.12409274 -459.89001756 980.93408786 -460.87475586 979.74536133 C-481.10944001 955.25466206 -499.10952359 928.86386454 -514.92553711 901.31567383 C-515.34706055 900.58155273 -515.76858398 899.84743164 -516.20288086 899.09106445 C-519.18192886 893.87077007 -522.07042091 888.60458945 -524.92553711 883.31567383 C-525.38927734 882.46199219 -525.85301758 881.60831055 -526.33081055 880.72875977 C-560.09314344 818.32369957 -581.30145802 749.15426015 -590.67553711 678.94067383 C-590.7767688 678.1902179 -590.87800049 677.43976196 -590.9822998 676.66656494 C-591.70755249 671.22417657 -592.34736885 665.77561421 -592.92553711 660.31567383 C-593.06697647 658.98129776 -593.06697647 658.98129776 -593.21127319 657.6199646 C-594.98351998 640.21511925 -595.27027114 622.86517208 -595.24121094 605.39013672 C-595.23660224 602.39812085 -595.24343959 599.40651383 -595.26171875 596.41455078 C-595.39379675 574.55242253 -594.28755855 553.05221736 -591.92553711 531.31567383 C-591.8232077 530.37152618 -591.7208783 529.42737854 -591.615448 528.45462036 C-591.07872586 523.64393603 -590.44526881 518.85476749 -589.73803711 514.06567383 C-589.63704712 513.37217834 -589.53605713 512.67868286 -589.43200684 511.96417236 C-581.65392912 459.02339577 -566.53750267 407.24672097 -544.92553711 358.31567383 C-544.41555176 357.1595459 -543.90556641 356.00341797 -543.38012695 354.81225586 C-524.61526411 312.63660493 -500.96550051 272.98399484 -472.92553711 236.31567383 C-472.43504883 235.67355957 -471.94456055 235.03144531 -471.43920898 234.36987305 C-465.30781651 226.38029326 -458.91525954 218.6308223 -452.35668945 210.98950195 C-450.85690615 209.23540534 -449.36900858 207.47171211 -447.88256836 205.70629883 C-442.77510506 199.66109298 -437.60273658 193.83689921 -431.92553711 188.31176758 C-430.0525334 186.44242207 -428.32697682 184.51787699 -426.61303711 182.50317383 C-420.06498982 174.88916535 -412.8195522 167.78363573 -405.17163086 161.28051758 C-402.70848541 159.12580077 -400.32610281 156.89771515 -397.94116211 154.65722656 C-391.47725656 148.58781953 -384.85271841 142.85558142 -377.92553711 137.31567383 C-376.73395602 136.33439161 -375.54395114 135.35119337 -374.35522461 134.36645508 C-349.86452534 114.13177093 -323.47372782 96.13168735 -295.92553711 80.31567383 C-295.19141602 79.89415039 -294.45729492 79.47262695 -293.70092773 79.03833008 C-288.48063335 76.05928208 -283.21445273 73.17079002 -277.92553711 70.31567383 C-277.07185547 69.85193359 -276.21817383 69.38819336 -275.33862305 68.91040039 C-212.93356285 35.1480675 -143.76412343 13.93975291 -73.55053711 4.56567383 C-72.80008118 4.46444214 -72.04962524 4.36321045 -71.27642822 4.25891113 C-65.83403985 3.53365844 -60.38547749 2.89384208 -54.92553711 2.31567383 C-53.59116104 2.17423447 -53.59116104 2.17423447 -52.22982788 2.02993774 C-34.82498253 0.25769096 -17.47503536 -0.0290602 0 0 Z " fill="#F6BE4F" transform="translate(594.925537109375,-0.315673828125)"/>
<path d="M0 0 C1.98465584 1.40821584 3.73496041 2.8768635 5.50390625 4.546875 C6.23480469 5.23523438 6.96570313 5.92359375 7.71875 6.6328125 C13.22971961 11.99850171 13.22971961 11.99850171 14.50390625 14.546875 C17.70653915 13.96583577 19.27187412 13.07380202 21.56640625 10.796875 C32.51856749 0.93755414 45.82393513 0.79221271 59.72314453 1.32910156 C70.96503818 2.20950272 80.24667158 8.59397601 87.5703125 16.88671875 C90.52124312 20.58924339 93.22369772 24.38884768 95.50390625 28.546875 C98.82393193 27.94376628 101.88585249 27.09837606 105.06640625 25.984375 C116.40822989 22.59525019 127.66158716 24.41745963 138.078125 29.90234375 C148.81610969 36.70245969 156.17145062 46.15619908 159.50390625 58.546875 C161.13194763 72.06316869 158.9930813 83.89444538 150.75390625 94.984375 C145.9519239 100.56849841 140.69846156 104.74823617 133.50390625 106.546875 C133.50390625 109.516875 133.50390625 112.486875 133.50390625 115.546875 C134.54393799 115.5154541 134.54393799 115.5154541 135.60498047 115.48339844 C159.86774952 114.84965443 182.65434655 116.45076272 201.50390625 133.546875 C221.78863937 156.29036365 225.04812319 191.28401677 223.72265625 220.29931641 C222.11293786 244.19716687 213.54552509 269.39069065 196.50390625 286.546875 C195.85035156 287.24683594 195.19679688 287.94679688 194.5234375 288.66796875 C183.48452286 299.62147592 163.77390151 307.35568772 148.24487305 307.59765625 C147.340354 307.58089844 146.43583496 307.56414062 145.50390625 307.546875 C145.58954834 308.73539062 145.67519043 309.92390625 145.76342773 311.1484375 C146.08661413 315.63633892 146.40880044 320.12431172 146.73071289 324.61230469 C146.86911981 326.5400581 147.0077837 328.46779309 147.14672852 330.39550781 C147.82055686 339.74639649 148.49235595 349.09750757 149.09765625 358.453125 C149.21463867 360.25233398 149.21463867 360.25233398 149.33398438 362.08789062 C149.60352505 367.5747473 149.58853704 373.05527729 149.50390625 378.546875 C150.61765625 378.74216797 150.61765625 378.74216797 151.75390625 378.94140625 C158.80814025 380.49454016 163.33630601 383.73749284 167.50390625 389.546875 C169.12291095 392.7848844 169.0591599 396.04606842 168.50390625 399.546875 C160.38368684 411.72720411 138.79793351 414.93131757 125.56640625 417.671875 C124.39400391 417.92324219 123.22160156 418.17460938 122.01367188 418.43359375 C107.81179511 421.42924086 93.67420546 423.10399182 79.23095703 424.35180664 C76.27329052 424.60769791 73.31632248 424.87070859 70.359375 425.13476562 C52.90791646 426.67796019 35.58948619 427.75587971 18.06640625 427.734375 C16.79606537 427.73396713 16.79606537 427.73396713 15.50006104 427.73355103 C-105.92467212 427.55758947 -105.92467212 427.55758947 -143.49609375 403.546875 C-146.02356667 400.89904623 -146.97646391 398.95206545 -147.12109375 395.296875 C-146.93480844 390.38056277 -145.02207904 387.7276665 -141.640625 384.27734375 C-137.47305145 380.91443832 -132.90002521 378.546875 -127.49609375 378.546875 C-127.47627441 377.7847168 -127.45645508 377.02255859 -127.43603516 376.23730469 C-126.99755077 360.02065019 -126.25097793 343.88253594 -125.02734375 327.703125 C-124.47478987 320.3837881 -124.00228743 313.06105622 -123.55859375 305.734375 C-123.51904572 305.08227051 -123.47949768 304.43016602 -123.43875122 303.75830078 C-122.84453702 293.90869166 -122.30298973 284.05640241 -121.7734375 274.203125 C-121.71023315 273.02736404 -121.64702881 271.85160309 -121.58190918 270.64021301 C-121.19051472 263.35532199 -121.19051472 263.35532199 -120.79962158 256.07040405 C-120.05300279 242.18504162 -119.26142441 228.31291447 -118.1953125 214.44799805 C-117.39601651 203.80820275 -116.89161622 193.15557137 -116.37182617 182.49923706 C-115.85941275 172.02268196 -115.23946862 161.56827887 -114.43359375 151.109375 C-114.19810895 147.79191829 -113.97012598 144.4740769 -113.74707031 141.15576172 C-113.56597142 138.55167234 -113.37248045 135.9502818 -113.16699219 133.34814453 C-112.88088292 129.67574173 -112.64597428 126.00268653 -112.44070435 122.32492065 C-112.35360613 120.90545518 -112.25034612 119.48687611 -112.12985229 118.06985474 C-111.76999065 113.77070504 -111.56556169 109.7744606 -112.49609375 105.546875 C-114.56427039 103.23550895 -116.40041871 102.03645464 -119.17993164 100.68701172 C-127.62601578 96.52940521 -132.17921452 85.8578125 -135.49609375 77.546875 C-138.53685663 61.88606736 -136.23284132 49.20298419 -127.40234375 36.05078125 C-121.10623149 27.78068297 -111.08991995 20.83598447 -100.76953125 18.79296875 C-90.56482276 17.68833536 -81.34741554 18.79766892 -71.49609375 21.546875 C-71.22667969 20.64710938 -70.95726562 19.74734375 -70.6796875 18.8203125 C-66.9677469 8.55428536 -57.80565666 1.61783376 -48.26171875 -3.02734375 C-31.61015899 -10.11441004 -15.68431853 -9.13077698 0 0 Z " fill="#271801" transform="translate(561.49609375,182.453125)"/>
<path d="M0 0 C6.9764585 5.42154763 11.20144299 12.75958955 13.0625 21.375 C14.061963 25.23959027 14.69355286 26.79570191 18 29 C21 29.66666667 21 29.66666667 24 29 C27.23983167 26.26874655 28.92840269 23.47535087 30.75 19.6875 C34.68646142 12.24202121 40.11749619 7.15300153 48 4 C57.41598466 1.76489253 66.5126102 2.14801831 75 7 C84.80520836 13.80677909 88.27510674 21.76351344 91.10546875 33.12109375 C91.40066406 34.07113281 91.69585938 35.02117187 92 36 C95.55262022 37.77631011 99.1407049 37.77309597 103 37 C105.27968058 35.43691019 107.13567454 33.67718058 109.12109375 31.7578125 C114.55607199 26.67311352 120.68863684 26.45681298 127.78125 26.66015625 C134.63780469 27.3840886 139.1888477 29.78464909 143.875 34.8125 C148.93332744 41.20876091 150.64995198 46.81410054 150.40625 54.9375 C149.348938 62.90800584 145.25731798 68.41897821 139.2578125 73.52734375 C131.92094445 78.31280959 125.7592984 78.42413633 117.15161133 78.36889648 C115.18372887 78.37467776 113.21584641 78.38046174 111.24796426 78.38634789 C109.14402872 78.3898213 107.04021797 78.38599195 104.93628883 78.38012505 C100.54488832 78.3685027 96.15374985 78.38073575 91.76237488 78.39674377 C80.86054026 78.43286411 69.95871278 78.43916445 59.05682373 78.43664551 C50.57246122 78.43493478 42.08831387 78.44202533 33.60401171 78.47662407 C29.23867964 78.49342207 24.87387267 78.49162163 20.50854266 78.47580135 C17.15901301 78.46865086 13.80970922 78.48723133 10.46020508 78.50170898 C9.25128601 78.49196548 8.04236694 78.48222198 6.79681396 78.47218323 C5.69076309 78.48176056 4.58471222 78.49133789 3.44514465 78.50120544 C2.48451016 78.50099616 1.52387568 78.50078688 0.53413105 78.50057125 C-2.7455619 79.14693599 -3.94077969 80.42133582 -6 83 C-6.59005297 85.4065279 -6.59005297 85.4065279 -6.49829102 88.04052734 C-6.50832657 89.04191742 -6.51836212 90.0433075 -6.52870178 91.07504272 C-6.52051926 92.151138 -6.51233673 93.22723328 -6.50390625 94.3359375 C-6.51332748 95.44804596 -6.52274872 96.56015442 -6.53245544 97.70596313 C-6.56115199 101.26249564 -6.56418219 104.81836096 -6.5625 108.375 C-6.56610809 111.92440077 -6.57566069 115.47331432 -6.60325623 119.02261353 C-6.62003361 121.23070124 -6.62292911 123.43894918 -6.61024475 125.64706421 C-6.64798427 131.17194174 -6.82002447 135.25530576 -10 140 C-12.92895716 142.38655768 -16.3110678 142.47391266 -20.03125 142.390625 C-23.42127675 141.71800064 -24.96848242 139.64712896 -27 137 C-27.98344792 134.04965625 -28.12978261 132.11741897 -28.1418457 129.04125977 C-28.15239738 127.52937828 -28.15239738 127.52937828 -28.16316223 125.98695374 C-28.16732651 124.89942307 -28.17149078 123.8118924 -28.17578125 122.69140625 C-28.19897302 120.39517306 -28.22309009 118.09894906 -28.24804688 115.80273438 C-28.28321696 112.1772643 -28.31253828 108.5521339 -28.32592773 104.92651367 C-28.34136807 101.43105922 -28.38154706 97.93659917 -28.42578125 94.44140625 C-28.42387283 93.35589981 -28.42196442 92.27039337 -28.41999817 91.1519928 C-28.44473457 89.63538307 -28.44473457 89.63538307 -28.4699707 88.08813477 C-28.47583694 87.2000563 -28.48170319 86.31197784 -28.48774719 85.39698792 C-29.16669193 82.21999738 -30.49530582 81.00438185 -33 79 C-35.71061858 78.48148438 -35.71061858 78.48148438 -38.5625 78.6875 C-39.98755859 78.72423828 -39.98755859 78.72423828 -41.44140625 78.76171875 C-44.1184757 78.91343896 -44.1184757 78.91343896 -47 80 C-47.92766151 82.78298452 -48.12472894 84.43508413 -48.12457275 87.30659485 C-48.12713577 88.18553406 -48.12969879 89.06447327 -48.13233948 89.970047 C-48.13023972 90.93166245 -48.12813995 91.89327789 -48.12597656 92.8840332 C-48.1278447 93.89895844 -48.12971283 94.91388367 -48.13163757 95.95956421 C-48.13564426 98.16616372 -48.13771666 100.37276738 -48.13809967 102.5793705 C-48.14151108 107.26882037 -48.16286776 111.95813108 -48.18333054 116.64753246 C-48.22137896 125.3821463 -48.25261372 134.11661223 -48.25048828 142.85131836 C-48.24970175 148.92390631 -48.27304085 154.99598608 -48.3123703 161.06844139 C-48.32284109 163.38285221 -48.32434646 165.69732161 -48.31671906 168.01174355 C-48.30710893 171.25098372 -48.32825934 174.48868225 -48.35644531 177.7277832 C-48.34624863 178.68332596 -48.33605194 179.63886871 -48.32554626 180.62336731 C-48.39368165 184.99136879 -48.5561034 188.03655905 -51.35272217 191.51701355 C-55.82321139 195.71006198 -58.46359716 196.55292889 -64.41796875 196.45703125 C-68.65542247 195.70698271 -71.36318664 193.31415991 -74 190 C-74.92139715 187.23580855 -75.12473045 185.61077338 -75.12457275 182.76260376 C-75.12713577 181.8990477 -75.12969879 181.03549164 -75.13233948 180.14576721 C-75.13023972 179.2012822 -75.12813995 178.25679718 -75.12597656 177.28369141 C-75.1278447 176.28666702 -75.12971283 175.28964264 -75.13163757 174.2624054 C-75.13564389 172.09509159 -75.13771662 169.92777356 -75.13809967 167.76045609 C-75.14151057 163.15615002 -75.16286548 158.55198577 -75.18333054 153.94772911 C-75.22138702 145.37138373 -75.25261239 136.79518942 -75.25048828 128.21875 C-75.24970226 122.25638796 -75.27301792 116.29454415 -75.3123703 110.33231735 C-75.32284824 108.05894677 -75.32434122 105.7855165 -75.31671906 103.51213455 C-75.30712135 100.33254954 -75.32823502 97.15454027 -75.35644531 93.97509766 C-75.34624863 93.0346611 -75.33605194 92.09422455 -75.32554626 91.12528992 C-75.39795592 86.57849583 -75.51872896 84.6223656 -78.37908936 80.9234314 C-81.21615944 78.84136511 -82.78671234 78.32405031 -86.25 78 C-94.80994744 76.73441637 -101.0436826 73.03781595 -106.4921875 66.296875 C-111.08997473 59.29299186 -113.31169358 51.32993037 -112 43 C-109.3581128 33.62051881 -103.05969832 26.78522201 -94.796875 21.91015625 C-88.78797443 18.86651748 -81.0559162 19.11031516 -74.578125 20.53125 C-71.3340986 21.68803461 -68.69264701 23.21514709 -65.875 25.1875 C-62.53706429 27.29185078 -60.87226711 27.4208986 -57 27 C-55.6630829 26.68134413 -54.32885789 26.35075004 -53 26 C-52.76216797 24.96552734 -52.76216797 24.96552734 -52.51953125 23.91015625 C-49.7411887 12.72003624 -45.59749623 4.76909503 -36 -2 C-25.73846437 -8.01956224 -9.36913155 -6.95186032 0 0 Z " fill="#F5BD4F" transform="translate(554,198)"/>
<path d="M0 0 C53.93814433 0 53.93814433 0 63.52734375 9.515625 C68.73377625 15.49170405 69.45244521 19.87476993 69.3125 27.66796875 C68.73810459 33.79245982 66.7692439 38.74406727 62.125 42.875 C59.16749373 44.88610426 56.2560289 46.52703455 53 48 C53.64066406 48.20753906 54.28132813 48.41507813 54.94140625 48.62890625 C62.0343593 51.15530831 67.06777558 54.41043134 71.16796875 60.828125 C73.37951513 66.60098785 72.81795492 74.47380355 70.9375 80.3125 C67.50611192 87.8424905 62.07854874 92.48002514 54.72265625 95.9921875 C36.51695885 102.73116875 21.68609017 99 0 99 C0 66.33 0 33.66 0 0 Z " fill="#281901" transform="translate(250,926)"/>
<path d="M0 0 C6.93 0 13.86 0 21 0 C19.92333455 10.76665451 19.92333455 10.76665451 18 16 C17.56684897 18.00375832 17.17351257 20.01645808 16.81640625 22.03515625 C16.50799805 23.74541992 16.50799805 23.74541992 16.19335938 25.49023438 C15.98517578 26.66908203 15.77699219 27.84792969 15.5625 29.0625 C13.95692075 38.11350986 12.1288929 47.05616716 10 56 C14.95 56.33 19.9 56.66 25 57 C25.33 54.628125 25.66 52.25625 26 49.8125 C27.58826616 39.24426843 29.86958194 28.81616353 32.125 18.375 C32.30675781 17.52797516 32.48851562 16.68095032 32.67578125 15.80825806 C33.19841775 13.37893247 33.72688319 10.95096272 34.2578125 8.5234375 C34.41814972 7.77945206 34.57848694 7.03546661 34.74368286 6.26893616 C35.88419217 1.11580783 35.88419217 1.11580783 37 0 C38.4887186 -0.08669432 39.981445 -0.10703494 41.47265625 -0.09765625 C42.37177734 -0.09443359 43.27089844 -0.09121094 44.19726562 -0.08789062 C45.61555664 -0.07532227 45.61555664 -0.07532227 47.0625 -0.0625 C48.4865918 -0.05573242 48.4865918 -0.05573242 49.93945312 -0.04882812 C52.29303065 -0.0370011 54.64648477 -0.02052025 57 0 C56.26277645 7.05451318 54.83743061 13.89777729 53.34765625 20.828125 C53.08746201 22.0535199 52.82726776 23.27891479 52.55918884 24.54144287 C51.73010834 28.44497399 50.89676346 32.34757454 50.0625 36.25 C49.2318475 40.1381478 48.40269238 44.02660701 47.57652283 47.91571045 C47.0637336 50.32937827 46.54855388 52.74253995 46.03053284 55.15509033 C44.67591797 61.52844084 43.47223793 67.89678144 42.47691345 74.33654785 C41.9969715 77.0169135 41.34218499 79.58615919 40.59375 82.203125 C38.47598207 89.62595479 37.02648922 97.18913409 35.5 104.75 C35.20214753 106.21100372 34.90397185 107.67194158 34.60546875 109.1328125 C33.43365136 114.87973154 32.26267772 120.62635671 31.1484375 126.38476562 C31.01280396 127.08023499 30.87717041 127.77570435 30.73742676 128.49224854 C30.36557869 130.40343229 29.99808293 132.31546135 29.63085938 134.22753906 C29 137 29 137 28 138 C26.5112814 138.08669432 25.018555 138.10703494 23.52734375 138.09765625 C22.62822266 138.09443359 21.72910156 138.09121094 20.80273438 138.08789062 C19.85720703 138.07951172 18.91167969 138.07113281 17.9375 138.0625 C16.98810547 138.05798828 16.03871094 138.05347656 15.06054688 138.04882812 C12.70696935 138.0370011 10.35351523 138.02052025 8 138 C8.36292472 131.04999155 9.48586501 124.6382701 11.27197266 117.90820312 C13.26388802 110.26691072 14.74675304 102.53073724 16.24902344 94.78076172 C17.34816847 89.13806823 18.54278787 83.56147015 20 78 C15.05 78.33 10.1 78.66 5 79 C4.70867187 80.50304687 4.41734375 82.00609375 4.1171875 83.5546875 C1.63406326 96.23093414 -1.03749018 108.83964494 -4.03173828 121.40576172 C-5.53924711 127.75108458 -5.53924711 127.75108458 -6.609375 134.1796875 C-7 137 -7 137 -8 138 C-9.4887186 138.08669432 -10.981445 138.10703494 -12.47265625 138.09765625 C-13.37177734 138.09443359 -14.27089844 138.09121094 -15.19726562 138.08789062 C-16.14279297 138.07951172 -17.08832031 138.07113281 -18.0625 138.0625 C-19.01189453 138.05798828 -19.96128906 138.05347656 -20.93945312 138.04882812 C-23.29303065 138.0370011 -25.64648477 138.02052025 -28 138 C-27.65583134 132.63571605 -26.97462697 127.55292493 -25.59375 122.3515625 C-24.08861159 116.47697261 -22.9083358 110.58739361 -21.8125 104.625 C-19.62813963 93.00932203 -17.24904386 81.43997085 -14.8125 69.875 C-14.63828522 69.04526672 -14.46407043 68.21553345 -14.28457642 67.36065674 C-13.78147577 64.96659161 -13.27599209 62.57304382 -12.76953125 60.1796875 C-12.6207251 59.47225403 -12.47191895 58.76482056 -12.31860352 58.03594971 C-11.45214837 53.96281094 -10.49397261 49.92334058 -9.4702301 45.88699341 C-8.20009661 40.79005574 -7.15997323 35.63620219 -6.0625 30.5 C-5.66490479 28.6432666 -5.66490479 28.6432666 -5.25927734 26.74902344 C-3.36648704 17.85395603 -1.61101363 8.95007573 0 0 Z " fill="#2A1A02" transform="translate(323,661)"/>
<path d="M0 0 C2.831571 1.23111782 4.42712562 2.11735471 6.10888672 4.70849609 C10.58450489 16.21757889 5.36454961 31.90624984 2.875 43.375 C2.45922443 45.33480483 2.04419049 47.29476714 1.62988281 49.25488281 C0.62202212 53.99726955 -0.4068476 58.73475434 -1.44616699 63.47033691 C-1.94747183 65.76007466 -2.44253254 68.05102993 -2.93457031 70.34277344 C-3.68608041 73.81683611 -4.4600587 77.28450323 -5.25 80.75 C-5.45898926 81.70438965 -5.66797852 82.6587793 -5.88330078 83.64208984 C-7.63574794 90.99966142 -10.60696915 97.58735185 -16.625 102.4375 C-17.47964844 103.14712891 -17.47964844 103.14712891 -18.3515625 103.87109375 C-22.10818457 106.44375673 -25.60148142 106.55854204 -30 106 C-33.54660984 103.93200593 -36.77911084 101.54041962 -40 99 C-40.1134375 100.21300781 -40.226875 101.42601562 -40.34375 102.67578125 C-41.03728827 108.9139626 -42.27988163 115.03461736 -43.5 121.1875 C-43.94854814 123.47253238 -44.39648539 125.75768479 -44.84375 128.04296875 C-45.04162109 129.04352295 -45.23949219 130.04407715 -45.44335938 131.07495117 C-46.00792361 134.04163716 -46.50352708 137.02116245 -47 140 C-53.6 140 -60.2 140 -67 140 C-66.41033505 133.03780868 -65.38328969 126.37180311 -63.890625 119.55078125 C-63.68193787 118.57626511 -63.47325073 117.60174896 -63.25823975 116.59770203 C-62.59392473 113.5015118 -61.92209741 110.4070091 -61.25 107.3125 C-60.81460943 105.28851782 -60.37971024 103.26442987 -59.9453125 101.24023438 C-58.23093548 93.264179 -56.50325516 85.29107043 -54.7565918 77.32202148 C-52.50047366 67.01747474 -50.30182655 56.70333092 -48.17578125 46.37109375 C-47.94025543 45.22691483 -47.70472961 44.0827359 -47.46206665 42.90388489 C-46.49768634 38.21414923 -45.53457303 33.52416362 -44.57592773 28.83325195 C-43.86246564 25.34518866 -43.14446968 21.85808338 -42.42578125 18.37109375 C-42.10387566 16.78680824 -42.10387566 16.78680824 -41.77546692 15.17051697 C-41.57152817 14.18410721 -41.36758942 13.19769745 -41.1574707 12.18139648 C-40.98157913 11.32255356 -40.80568756 10.46371063 -40.62446594 9.57884216 C-39.92067278 6.67240427 -38.94565882 3.83697646 -38 1 C-31.73 1 -25.46 1 -19 1 C-19 2.65 -19 4.3 -19 6 C-17.948125 5.3503125 -17.948125 5.3503125 -16.875 4.6875 C-10.94750009 1.20831527 -6.90079404 -1.07081287 0 0 Z " fill="#2A1B02" transform="translate(486,695)"/>
<path d="M0 0 C5.76006125 5.62915077 8.11387185 11.52573426 8.4375 19.5625 C8.29209455 25.91187144 6.7486224 31.5987817 4.97265625 37.65234375 C3.87683352 41.24635499 3.87683352 41.24635499 3 46 C-3.27 46 -9.54 46 -16 46 C-15.5775413 41.00090533 -15.12329503 36.19023843 -13.9375 31.3125 C-12.88933067 26.90080224 -11.90020604 22.19958792 -14 18 C-19.08303686 17.88679144 -19.08303686 17.88679144 -24 19 C-24.96723759 21.21853189 -24.96723759 21.21853189 -25.5625 23.9375 C-25.81257812 24.94296875 -26.06265625 25.9484375 -26.3203125 26.984375 C-27.08360457 30.37093523 -27.76237212 33.76554577 -28.41015625 37.17578125 C-29.12611152 40.60383199 -30.00047885 43.98498359 -30.875 47.375 C-33.05188818 55.90047099 -34.76176673 64.49747574 -36.43945312 73.1328125 C-37.50275045 78.5715598 -38.59795724 84.00396169 -39.6875 89.4375 C-40.10819444 91.54034028 -40.52877494 93.64320335 -40.94921875 95.74609375 C-41.47841201 98.39206006 -42.00777764 101.03738583 -42.55737305 103.67919922 C-43.01264284 106.06628947 -43.13324288 108.2599705 -43.125 110.6875 C-43.12757813 111.45449219 -43.13015625 112.22148438 -43.1328125 113.01171875 C-43.12368933 115.07479336 -43.12368933 115.07479336 -42 117 C-38.69108339 117.3008106 -36.66871766 117.42033681 -33.8125 115.625 C-29.3692694 109.18997637 -28.54378837 101.0524542 -27.4296875 93.46875 C-27 91 -27 91 -26 89 C-19.73 89 -13.46 89 -7 89 C-8.41146856 101.703217 -10.18220754 116.09894065 -19 126 C-19.53496094 126.64066406 -20.06992187 127.28132812 -20.62109375 127.94140625 C-26.73388979 134.70359863 -33.14059969 137.036583 -42.125 137.875 C-48.71692463 138.16592455 -52.98357154 137.82388697 -58.6875 134.375 C-64.60348297 128.2991256 -65.61655933 122.50525796 -65.54272461 114.30322266 C-65.15878989 104.79808152 -62.89470646 95.60961052 -60.76611328 86.37255859 C-59.37837723 80.26351277 -58.10812323 74.12910915 -56.8125 68 C-54.16955181 55.56073998 -54.16955181 55.56073998 -52.96875 50.9609375 C-52.12967551 47.69696764 -51.49600566 44.41604164 -50.88671875 41.1015625 C-50.69013672 40.04453125 -50.49355469 38.9875 -50.29101562 37.8984375 C-49.89044594 35.7257683 -49.49972439 33.55125907 -49.11914062 31.375 C-46.68659497 18.51614131 -41.23598518 8.38504078 -30.7578125 0.26171875 C-21.56777933 -5.23064114 -9.34863406 -4.80623027 0 0 Z " fill="#2A1A02" transform="translate(726,663)"/>
<path d="M0 0 C4.02784141 2.43222972 6.56777139 5.75234719 7.96142578 10.28027344 C9.52600104 18.20474553 7.94163454 26.30336581 6.5 34.125 C6.32597656 35.12660156 6.15195312 36.12820313 5.97265625 37.16015625 C5.28839698 40.9869396 4.6184875 44.65203125 3.37548828 48.34277344 C2.40193881 51.2933553 1.805106 54.09464201 1.296875 57.15625 C-4.34101869 89.59162898 -4.34101869 89.59162898 -14.73828125 98.10546875 C-22.4533751 103.21688972 -29.34354372 105.31659701 -38.625 104.375 C-44.53247854 102.63180961 -47.19321183 100.27755453 -50.625 95.375 C-56.42446092 83.26375829 -51.36472812 68.66944406 -48.33984375 56.45703125 C-47.13705882 51.59761695 -46.05618371 46.73147106 -45.06640625 41.82421875 C-44.81391113 40.57987061 -44.56141602 39.33552246 -44.30126953 38.0534668 C-43.82210358 35.66761307 -43.35244091 33.2798234 -42.89404297 30.88989258 C-40.54107558 19.36272055 -36.16801702 8.93087813 -26.4453125 1.76953125 C-18.55438008 -2.84860461 -8.4697364 -3.74501404 0 0 Z " fill="#2A1A02" transform="translate(421.625,696.625)"/>
<path d="M0 0 C3.75947457 2.40802946 5.95140133 5.09398158 7.79296875 9.1484375 C8.91070212 18.30430464 7.0725127 27.08740444 4.98046875 35.9609375 C4.42167458 38.43976594 3.86437061 40.91893081 3.30859375 43.3984375 C3.04240234 44.57148437 2.77621094 45.74453125 2.50195312 46.953125 C1.65336298 50.77762493 0.92133251 54.60495371 0.23046875 58.4609375 C-0.94310075 64.95748293 -2.34053838 71.39103534 -3.76953125 77.8359375 C-5.56006479 85.92243131 -7.09198914 93.93767285 -8.20703125 102.1484375 C-14.47703125 102.1484375 -20.74703125 102.1484375 -27.20703125 102.1484375 C-27.53703125 99.8384375 -27.86703125 97.5284375 -28.20703125 95.1484375 C-28.65433594 95.54675781 -29.10164062 95.94507813 -29.5625 96.35546875 C-35.24899713 101.33873169 -39.20476497 104.77819639 -47.0546875 104.50390625 C-50.33209916 103.96262774 -51.99524106 102.56129953 -54.20703125 100.1484375 C-58.17346932 94.32536884 -56.87653321 84.89473814 -56.20703125 78.1484375 C-53.53548093 65.28349614 -46.60640517 54.94998262 -35.95703125 47.3359375 C-30.43265753 43.73761163 -24.73253216 40.69752863 -18.7890625 37.8515625 C-15.75691716 35.85153925 -15.1781888 34.58773026 -14.20703125 31.1484375 C-13.83578125 30.0553125 -13.46453125 28.9621875 -13.08203125 27.8359375 C-12.10540735 23.72016536 -12.05929173 20.35901372 -12.20703125 16.1484375 C-14.18703125 16.1484375 -16.16703125 16.1484375 -18.20703125 16.1484375 C-18.83735258 17.35400354 -19.46098095 18.56306939 -20.08203125 19.7734375 C-20.60410156 20.78277344 -20.60410156 20.78277344 -21.13671875 21.8125 C-22.37017792 24.50450213 -23.2706394 27.33926195 -24.20703125 30.1484375 C-30.14703125 30.1484375 -36.08703125 30.1484375 -42.20703125 30.1484375 C-42.20703125 19.91894202 -38.29836921 13.52636624 -31.3984375 6.12890625 C-22.87815019 -1.57124645 -10.84446468 -4.87441917 0 0 Z " fill="#2A1A02" transform="translate(825.20703125,696.8515625)"/>
<path d="M0 0 C10.27485576 -0.52245029 22.2645223 1.181691 31 7 C39.77007997 15.0025203 44.14768894 23.26438106 46.25 34.8125 C46.41765869 35.72612305 46.58531738 36.63974609 46.75805664 37.58105469 C49.8562187 55.83296213 49.48439663 77.56195597 40 94 C32.78417369 104.04500178 23.21902988 110.65887495 11 113 C9.33342558 113.01753479 7.66655026 113.01969795 6 113 C5.36344521 102.9321001 4.72867704 92.86408918 4.09605503 82.79594135 C3.80210209 78.11854598 3.50758338 73.4411878 3.21166992 68.76391602 C-0.25881916 13.88996148 -0.25881916 13.88996148 0 0 Z " fill="#F4BD4F" transform="translate(698,337)"/>
<path d="M0 0 C4.62345 3.65645392 6.90161043 7.02605387 7.72265625 12.84375 C8.32868458 26.64254879 5.42854192 42.14739519 0.3125 54.9375 C-9.9175 54.9375 -20.1475 54.9375 -30.6875 54.9375 C-31.0175 57.9075 -31.3475 60.8775 -31.6875 63.9375 C-32.16254904 65.99030261 -32.67808481 68.03454952 -33.25 70.0625 C-34.41935748 74.56223343 -35.18008973 78.3071565 -34.6875 82.9375 C-33.05115337 86.15027591 -33.05115337 86.15027591 -30.3125 86.4375 C-27.53618359 86.16252416 -27.53618359 86.16252416 -25.6640625 83.92578125 C-23.2288748 80.24412395 -22.36841947 76.88939418 -21.4375 72.625 C-20.86 70.088125 -20.2825 67.55125 -19.6875 64.9375 C-13.7475 64.9375 -7.8075 64.9375 -1.6875 64.9375 C-2.03827691 76.33774942 -5.82078825 88.16012309 -13.9609375 96.42578125 C-21.15630717 102.72579949 -27.14045402 104.36362842 -36.5234375 104.18359375 C-42.06242432 103.75278366 -45.73255905 102.27508527 -49.5 98.0625 C-54.53382988 90.87131445 -54.62218468 83.42112694 -53.6875 74.9375 C-52.9623107 71.06367062 -51.93300754 67.27860664 -50.8840332 63.48168945 C-49.42072204 58.10952654 -48.23338886 52.7403413 -47.265625 47.2578125 C-47.14474518 46.58409607 -47.02386536 45.91037964 -46.89932251 45.21624756 C-46.3015654 41.87267863 -45.72609351 38.52891145 -45.18310547 35.17578125 C-42.77337873 21.64088805 -37.74052563 9.67617369 -26.6875 0.9375 C-19.56924465 -3.76054853 -7.51129118 -4.27804742 0 0 Z " fill="#2B1B02" transform="translate(589.6875,697.0625)"/>
<path d="M0 0 C3.5386994 1.65139305 4.81070153 2.71605229 7 6 C9.3200452 14.1201582 7.59353905 21.77292036 5.6875 29.75 C5.14274294 32.1125708 4.6014108 34.47593254 4.0625 36.83984375 C3.9097612 37.50835861 3.7570224 38.17687347 3.59965515 38.86564636 C1.26801837 49.13623751 -0.88389445 59.44648184 -3.06015015 69.75085449 C-3.80643712 73.28379817 -4.55512258 76.81622793 -5.30395508 80.34863281 C-5.77182569 82.56181122 -6.23952496 84.77502586 -6.70703125 86.98828125 C-6.9234729 88.0091835 -7.13991455 89.03008575 -7.36291504 90.08192444 C-7.56388794 91.03626877 -7.76486084 91.9906131 -7.97192383 92.97387695 C-8.14701981 93.80289017 -8.32211578 94.63190338 -8.5025177 95.48603821 C-9.06189401 98.31277331 -9.52627602 101.15765611 -10 104 C-16.6 104 -23.2 104 -30 104 C-28.81065533 93.77163582 -26.67789972 83.95830111 -24.31616211 73.94604492 C-22.18914817 64.90671984 -20.29960571 55.84345514 -18.53271484 46.72802734 C-17.45932749 41.23122154 -16.35105389 35.74131735 -15.25 30.25 C-14.81758821 28.08856569 -14.38528594 25.92710947 -13.953125 23.765625 C-13.63541667 22.17708333 -13.31770833 20.58854167 -13 19 C-14.27875 19.28875 -15.5575 19.5775 -16.875 19.875 C-17.59429688 20.03742187 -18.31359375 20.19984375 -19.0546875 20.3671875 C-21.20719964 20.90474428 -21.20719964 20.90474428 -23 23 C-23.79099219 25.62127313 -23.79099219 25.62127313 -24.40234375 28.72265625 C-24.65137451 29.89320557 -24.90040527 31.06375488 -25.15698242 32.26977539 C-25.41455322 33.52137451 -25.67212402 34.77297363 -25.9375 36.0625 C-26.20473877 37.33279053 -26.47197754 38.60308105 -26.74731445 39.91186523 C-28.42789949 47.97918657 -29.9738431 56.05238258 -31.26171875 64.19140625 C-31.85480886 67.25099811 -32.57095488 70.14709189 -33.4140625 73.140625 C-35.17217383 79.42823606 -36.4452357 85.78101916 -37.6875 92.1875 C-37.91244141 93.33025391 -38.13738281 94.47300781 -38.36914062 95.65039062 C-38.9163276 98.43289463 -39.45867521 101.21634959 -40 104 C-46.6 104 -53.2 104 -60 104 C-53.16797858 69.55653716 -46.24029094 35.13834817 -38 1 C-31.73 1 -25.46 1 -19 1 C-19 3.31 -19 5.62 -19 8 C-18.30132813 7.50628906 -17.60265625 7.01257813 -16.8828125 6.50390625 C-15.97273437 5.86324219 -15.06265625 5.22257813 -14.125 4.5625 C-13.22007812 3.92441406 -12.31515625 3.28632812 -11.3828125 2.62890625 C-7.35689032 -0.12324055 -4.91601654 -0.33328926 0 0 Z " fill="#2A1B02" transform="translate(653,695)"/>
<path d="M0 0 C2.4377963 -0.05397335 4.87439685 -0.09365616 7.3125 -0.125 C8.00279297 -0.14175781 8.69308594 -0.15851562 9.40429688 -0.17578125 C13.17135396 -0.21217794 14.78431704 -0.14378864 18 2 C18.94211363 4.73128584 19.71299775 7.36198443 20.41015625 10.15625 C20.62312851 10.97315308 20.83610077 11.79005615 21.05552673 12.63171387 C21.73536308 15.25181216 22.39874817 17.87578652 23.0625 20.5 C23.51267327 22.23723824 23.96383431 23.97422084 24.41601562 25.7109375 C26.50071209 33.76926315 28.50211171 41.80815897 30 50 C32.16655284 44.45488071 33.91789391 38.93958678 35.4375 33.1875 C37.06003906 27.18238851 38.86251427 21.35107169 41.09375 15.5390625 C42.41762596 11.82992726 43.35644608 8.03857109 44.2890625 4.21484375 C45 2 45 2 47 0 C49.71484375 -0.30078125 49.71484375 -0.30078125 52.9375 -0.3125 C54.52884766 -0.33763672 54.52884766 -0.33763672 56.15234375 -0.36328125 C59.4383232 0.05591777 59.9773559 0.49251825 62 3 C62.88793945 5.11865234 62.88793945 5.11865234 63.61328125 7.5859375 C64.02694946 8.96797363 64.02694946 8.96797363 64.44897461 10.37792969 C64.73393799 11.36696289 65.01890137 12.35599609 65.3125 13.375 C65.7621814 14.89722168 65.7621814 14.89722168 66.22094727 16.45019531 C67.15701588 19.63070958 68.07876573 22.81516153 69 26 C69.59587213 28.02878747 70.19221164 30.05743774 70.7890625 32.0859375 C71.339556 33.97366283 71.88907744 35.86167198 72.4375 37.75 C72.69635986 38.63606934 72.95521973 39.52213867 73.22192383 40.43505859 C73.4567749 41.25570801 73.69162598 42.07635742 73.93359375 42.921875 C74.14040771 43.63956055 74.34722168 44.35724609 74.56030273 45.09667969 C75 47 75 47 75 50 C75.66 50 76.32 50 77 50 C77.03955811 49.39051514 77.07911621 48.78103027 77.11987305 48.15307617 C77.62269833 41.88428062 78.88277217 36.28320723 80.8125 30.3125 C81.35888029 28.56836776 81.90313194 26.82356733 82.4453125 25.078125 C82.71118164 24.22412109 82.97705078 23.37011719 83.25097656 22.49023438 C84.68386132 17.72640631 85.86083949 12.89748243 87.04296875 8.06640625 C88.77656115 2.51183468 88.77656115 2.51183468 91 0 C93.78599571 -0.38060051 95.93372751 -0.47962905 98.6875 -0.3125 C99.38939453 -0.28994141 100.09128906 -0.26738281 100.81445312 -0.24414062 C102.5438833 -0.18531647 104.27221438 -0.09563389 106 0 C100.1871007 20.913041 100.1871007 20.913041 96.91796875 29.51953125 C94.30159164 36.5893162 92.31730329 43.89029216 90.2265625 51.12890625 C89.91178955 52.2166333 89.5970166 53.30436035 89.27270508 54.42504883 C88.63641618 56.62835891 88.00339915 58.8326167 87.3737793 61.0378418 C87.08156494 62.05144775 86.78935059 63.06505371 86.48828125 64.109375 C86.22571533 65.02686523 85.96314941 65.94435547 85.69262695 66.88964844 C85 69 85 69 84 70 C81.5057035 70.15313272 79.05811507 70.23156517 76.5625 70.25 C75.86833984 70.270625 75.17417969 70.29125 74.45898438 70.3125 C72.44140625 70.328125 72.44140625 70.328125 69 70 C67.07887095 67.11830642 66.29095723 65.09320954 65.3125 61.8125 C64.96960938 60.67039062 64.62671875 59.52828125 64.2734375 58.3515625 C63.26809362 54.93273299 62.27849656 51.50940104 61.2890625 48.0859375 C60.98444092 47.0343042 60.67981934 45.9826709 60.3659668 44.89916992 C59.75724842 42.79354535 59.15182377 40.68696517 58.55004883 38.5793457 C56.92528971 32.94419213 55.14568864 27.45878843 53 22 C48.69084627 34.12630739 44.56410933 46.25742796 40.94140625 58.609375 C40.58949219 59.79015625 40.23757813 60.9709375 39.875 62.1875 C39.56304688 63.25355469 39.25109375 64.31960938 38.9296875 65.41796875 C38 68 38 68 36 70 C32.7421875 70.1953125 32.7421875 70.1953125 28.875 70.125 C26.95300781 70.09792969 26.95300781 70.09792969 24.9921875 70.0703125 C24.00476563 70.04710937 23.01734375 70.02390625 22 70 C18.80485386 62.47101203 16.34685154 54.82861176 14 47 C13.21202187 44.45710107 12.4210798 41.91535256 11.625 39.375 C11.4189917 38.71669189 11.2129834 38.05838379 11.00073242 37.38012695 C10.33467342 35.25314981 9.66754417 33.12651149 9 31 C8.74927734 30.20126465 8.49855469 29.4025293 8.24023438 28.57958984 C7.45291438 26.07354836 6.66419957 23.56795015 5.875 21.0625 C5.63346191 20.29405762 5.39192383 19.52561523 5.14306641 18.73388672 C3.68444039 14.11041166 2.16215135 9.51740656 0.55517578 4.94311523 C0 3 0 3 0 0 Z " fill="#2C1C03" transform="translate(659,955)"/>
<path d="M0 0 C-0.11443603 2.0839403 -0.24195547 4.16716493 -0.375 6.25 C-0.44460938 7.41015625 -0.51421875 8.5703125 -0.5859375 9.765625 C-1.21657031 14.69170018 -1.21657031 14.69170018 -3 17 C-5.0234375 17.36328125 -5.0234375 17.36328125 -7.375 17.3125 C-9.78628392 17.42798241 -9.78628392 17.42798241 -12 18 C-16.16294659 23.01688436 -17.03043343 28.65954494 -18 35 C-15.03 35 -12.06 35 -9 35 C-11.1 51.1 -11.1 51.1 -13 53 C-14.68608966 53.07205511 -16.37500659 53.08386068 -18.0625 53.0625 C-18.98160156 53.05347656 -19.90070312 53.04445313 -20.84765625 53.03515625 C-21.55792969 53.02355469 -22.26820313 53.01195312 -23 53 C-23.11730469 54.22589844 -23.23460937 55.45179688 -23.35546875 56.71484375 C-24.02582599 62.7245788 -25.15777599 68.62974223 -26.3125 74.5625 C-26.53542725 75.71637207 -26.75835449 76.87024414 -26.98803711 78.05908203 C-28.44329371 85.47304551 -30.11915737 92.76899671 -32.03125 100.078125 C-33.63918008 106.38565559 -34.80331288 112.79349645 -36.05078125 119.1796875 C-37.28002607 125.47251879 -38.63793436 131.73449804 -40 138 C-46.6 138 -53.2 138 -60 138 C-58.54768456 130.02194717 -57.08376309 122.04630203 -55.578125 114.078125 C-55.45076965 113.39580811 -55.32341431 112.71349121 -55.19219971 112.01049805 C-54.05582988 106.03082539 -52.63581602 100.14571183 -51.07421875 94.26171875 C-49.46754015 88.07262284 -48.16198883 81.81149876 -46.8125 75.5625 C-46.55017578 74.36399414 -46.28785156 73.16548828 -46.01757812 71.93066406 C-44.66473389 65.62033448 -43.57075627 59.42960373 -43 53 C-45.64 53 -48.28 53 -51 53 C-49.28571429 37.28571429 -49.28571429 37.28571429 -47 35 C-45.48071962 34.92820036 -43.95832518 34.91607993 -42.4375 34.9375 C-41.61121094 34.94652344 -40.78492188 34.95554687 -39.93359375 34.96484375 C-39.29550781 34.97644531 -38.65742187 34.98804688 -38 35 C-37.85304688 34.12859375 -37.70609375 33.2571875 -37.5546875 32.359375 C-35.43949281 21.12696182 -32.40301568 10.61601213 -22.9921875 3.3359375 C-16.00024751 -1.3527752 -8.07836944 -2.69278981 0 0 Z " fill="#2B1B02" transform="translate(894,661)"/>
<path d="M0 0 C1.42119141 -0.00386719 1.42119141 -0.00386719 2.87109375 -0.0078125 C5.26390459 0.11026525 7.27586153 0.44387365 9.5625 1.125 C8.81589288 6.84898793 7.73372859 12.47353777 6.5625 18.125 C5.65757812 18.12886719 5.65757812 18.12886719 4.734375 18.1328125 C-0.6329355 18.39237467 -0.6329355 18.39237467 -4.875 21.5 C-6.93314296 26.27489166 -7.74345455 30.99271656 -8.4375 36.125 C-5.7975 36.125 -3.1575 36.125 -0.4375 36.125 C-2.00416667 52.69166667 -2.00416667 52.69166667 -3.4375 54.125 C-5.12358966 54.19705511 -6.81250659 54.20886068 -8.5 54.1875 C-9.41910156 54.17847656 -10.33820312 54.16945313 -11.28515625 54.16015625 C-11.99542969 54.14855469 -12.70570313 54.13695312 -13.4375 54.125 C-13.53772461 54.76824219 -13.63794922 55.41148437 -13.74121094 56.07421875 C-15.53189398 67.45987694 -17.41966468 78.67823366 -20.37109375 89.82421875 C-22.58575179 98.44742629 -24.11657924 107.24730707 -25.82177734 115.98193359 C-26.78264223 120.88684022 -27.76693572 125.78700486 -28.75 130.6875 C-29.306875 133.471875 -29.86375 136.25625 -30.4375 139.125 C-37.0375 139.125 -43.6375 139.125 -50.4375 139.125 C-49.52672525 132.74957677 -48.38549728 126.49764898 -47.125 120.1875 C-46.92455078 119.16076172 -46.72410156 118.13402344 -46.51757812 117.07617188 C-45.34257146 111.17931181 -44.00630266 105.34873034 -42.50390625 99.52734375 C-40.13943723 90.30676178 -38.41049088 80.98284481 -36.6875 71.625 C-36.368937 69.91528116 -36.04992874 68.20564522 -35.73046875 66.49609375 C-34.96103426 62.37332885 -34.19754713 58.24950536 -33.4375 54.125 C-36.0775 54.125 -38.7175 54.125 -41.4375 54.125 C-40.8510682 47.9674661 -39.87020782 42.14237285 -38.4375 36.125 C-35.1375 36.125 -31.8375 36.125 -28.4375 36.125 C-28.19 34.701875 -27.9425 33.27875 -27.6875 31.8125 C-25.1260004 19.23624849 -20.7964386 9.87397528 -10.26953125 2.25390625 C-6.83430129 0.13710144 -3.93643097 -0.01068231 0 0 Z " fill="#2B1B02" transform="translate(543.4375,659.875)"/>
<path d="M0 0 C0.79075928 0.00523682 1.58151855 0.01047363 2.39624023 0.01586914 C3.67724609 0.02070312 3.67724609 0.02070312 4.98413086 0.02563477 C5.88196289 0.03401367 6.77979492 0.04239258 7.70483398 0.05102539 C8.6065332 0.05553711 9.50823242 0.06004883 10.43725586 0.06469727 C12.67234712 0.07652315 14.90730835 0.09300319 17.14233398 0.11352539 C16.38244197 5.60983169 15.50127959 11.07966656 14.57983398 16.55102539 C14.44125977 17.37795898 14.30268555 18.20489258 14.15991211 19.05688477 C13.8214661 21.07589028 13.48200506 23.09472561 13.14233398 25.11352539 C17.10233398 25.11352539 21.06233398 25.11352539 25.14233398 25.11352539 C23.04233398 41.21352539 23.04233398 41.21352539 21.14233398 43.11352539 C16.80918339 43.25738829 12.47721038 43.15561157 8.14233398 43.11352539 C8.03856445 43.8641626 7.93479492 44.6147998 7.82788086 45.38818359 C6.51006021 54.46060685 4.65021391 63.36397066 2.64233398 72.30102539 C1.46761873 77.5700949 0.30058116 82.84081129 -0.85766602 88.11352539 C-1.07535645 89.09708008 -1.29304687 90.08063477 -1.51733398 91.09399414 C-2.49918748 95.71366268 -3.09312574 99.98875716 -2.98266602 104.73852539 C-2.9555957 106.27379883 -2.9555957 106.27379883 -2.92797852 107.84008789 C-2.90477539 108.59032227 -2.88157227 109.34055664 -2.85766602 110.11352539 C0.44233398 110.11352539 3.74233398 110.11352539 7.14233398 110.11352539 C6.71831611 112.69973371 6.27876258 115.28162758 5.82983398 117.86352539 C5.71188477 118.59313477 5.59393555 119.32274414 5.47241211 120.07446289 C4.1330541 127.62981577 4.1330541 127.62981577 1.14233398 130.11352539 C-2.00219727 130.60961914 -2.00219727 130.60961914 -5.67016602 130.55102539 C-6.87286133 130.54973633 -8.07555664 130.54844727 -9.31469727 130.54711914 C-14.43626312 129.92033434 -17.71551837 128.37914846 -21.17016602 124.55102539 C-26.07444172 117.4670716 -24.62941625 107.09689195 -23.36108398 98.90698242 C-21.99487469 91.59697143 -20.35840576 84.34598944 -18.73071289 77.09057617 C-17.34743796 70.8578958 -16.12157497 64.59283273 -14.8838501 58.32995605 C-14.48685574 56.32221434 -14.08749361 54.31495879 -13.68725586 52.30786133 C-13.0762311 49.24331193 -12.46642495 46.1785255 -11.85766602 43.11352539 C-14.49766602 43.11352539 -17.13766602 43.11352539 -19.85766602 43.11352539 C-19.4281166 36.86245104 -18.84365095 31.07148018 -16.85766602 25.11352539 C-13.55766602 25.11352539 -10.25766602 25.11352539 -6.85766602 25.11352539 C-6.80868164 24.38907227 -6.75969727 23.66461914 -6.70922852 22.91821289 C-6.30157225 17.64679563 -5.67308298 13.10592203 -3.85766602 8.11352539 C-3.51363294 5.78174564 -3.178174 3.44865498 -2.85766602 1.11352539 C-1.85766602 0.11352539 -1.85766602 0.11352539 0 0 Z " fill="#2B1B02" transform="translate(906.857666015625,670.886474609375)"/>
<path d="M0 0 C6.43203879 5.26257719 11.78206158 11.73214192 12.75 20.25 C13.22761194 29.53358209 13.22761194 29.53358209 10.75 33.25 C8.80111694 33.61076355 8.80111694 33.61076355 6.39208984 33.59057617 C5.49130707 33.59034958 4.59052429 33.59012299 3.66244507 33.58988953 C2.68844757 33.57440567 1.71445007 33.55892181 0.7109375 33.54296875 C-0.28505463 33.53872391 -1.28104675 33.53447906 -2.30722046 33.53010559 C-5.49675225 33.5132768 -8.68565833 33.47561676 -11.875 33.4375 C-14.03384506 33.4224586 -16.1927 33.40876925 -18.3515625 33.39648438 C-23.65125612 33.36335967 -28.95058337 33.31311896 -34.25 33.25 C-33.94221236 34.69808748 -33.63060771 36.14536403 -33.31738281 37.59228516 C-33.14426575 38.39832184 -32.97114868 39.20435852 -32.79278564 40.03482056 C-31.5335851 45.1737832 -28.82320247 49.02213466 -24.6875 52.25 C-17.08365025 54.46202902 -10.45359391 54.15189556 -3.3125 50.6875 C-2.03052734 49.97400391 -2.03052734 49.97400391 -0.72265625 49.24609375 C2.3053753 48.02627061 3.70604113 48.12111459 6.75 49.25 C8.33203125 50.87890625 8.33203125 50.87890625 9.5625 52.8125 C10.19091797 53.77349609 10.19091797 53.77349609 10.83203125 54.75390625 C11.13496094 55.24761719 11.43789063 55.74132812 11.75 56.25 C2.11743001 65.54186815 -7.78299408 67.66343527 -20.96875 67.52734375 C-29.04297332 66.84487964 -36.54089356 62.97138408 -42.25 57.25 C-50.58357377 46.32753824 -52.42273726 34.64102312 -51.25 21.25 C-49.57529381 12.9657867 -44.50663017 6.74647884 -38.25 1.25 C-26.16476908 -6.56774582 -12.63763983 -6.80488298 0 0 Z " fill="#2B1B02" transform="translate(382.25,958.75)"/>
<path d="M0 0 C6.47392179 4.57311574 10.34560689 10.82493784 12.375 18.4375 C12.5703125 22.0859375 12.5703125 22.0859375 12.5 25.8125 C12.48195313 27.05773437 12.46390625 28.30296875 12.4453125 29.5859375 C12.42210937 30.52695312 12.39890625 31.46796875 12.375 32.4375 C10.0229994 33.6135003 8.63765599 33.55834541 6.01708984 33.55102539 C4.66591568 33.55091209 4.66591568 33.55091209 3.28744507 33.55079651 C2.31344757 33.54563522 1.33945007 33.54047394 0.3359375 33.53515625 C-0.66005463 33.5337413 -1.65604675 33.53232635 -2.68222046 33.53086853 C-5.87151053 33.52525936 -9.06073106 33.5127053 -12.25 33.5 C-14.40885315 33.49498618 -16.56770741 33.49042307 -18.7265625 33.48632812 C-24.0260655 33.47528695 -29.32552778 33.45853988 -34.625 33.4375 C-34.33196931 34.85914341 -34.03252853 36.27946635 -33.73046875 37.69921875 C-33.56442139 38.49030029 -33.39837402 39.28138184 -33.22729492 40.09643555 C-31.92393803 45.16246282 -29.77361861 48.48439094 -25.6875 51.875 C-20.35183356 54.50848344 -14.38937433 54.26488944 -8.625 53.4375 C-5.83284491 52.34557467 -3.39293359 51.10266454 -0.84375 49.53125 C1.81515226 48.22052353 3.44584657 48.03676891 6.375 48.4375 C9.25 51.1875 9.25 51.1875 11.375 54.4375 C11.28515625 56.44921875 11.28515625 56.44921875 10.375 58.4375 C0.84166442 66.31453889 -10.58394766 68.50386626 -22.625 67.4375 C-31.67819568 65.90522429 -38.27689765 61.67658676 -43.9375 54.5 C-51.16555294 44.24716403 -51.54697094 33.58021787 -50.625 21.4375 C-48.98970753 12.81773547 -44.65986074 5.87594148 -37.3828125 0.90625 C-35.17054512 -0.37492841 -32.94891695 -1.49952317 -30.625 -2.5625 C-29.696875 -2.995625 -28.76875 -3.42875 -27.8125 -3.875 C-18.13353325 -5.96262028 -8.49717568 -5.10396076 0 0 Z " fill="#2A1A02" transform="translate(454.625,958.5625)"/>
<path d="M0 0 C5.61679078 4.35301285 8.91830523 9.97288749 10.1875 16.8984375 C10.44841603 20.77480506 10.42071957 24.63590612 10.3828125 28.51953125 C10.3799826 29.61942886 10.37715271 30.71932648 10.37423706 31.85255432 C10.3630898 35.34712853 10.33799498 38.84144144 10.3125 42.3359375 C10.30246316 44.71288691 10.29333854 47.08984036 10.28515625 49.46679688 C10.26316831 55.2774321 10.2297451 61.08791612 10.1875 66.8984375 C8.41800905 67.00658975 6.64662513 67.08409833 4.875 67.1484375 C3.88886719 67.19484375 2.90273438 67.24125 1.88671875 67.2890625 C-0.8125 66.8984375 -0.8125 66.8984375 -2.65625 65.0546875 C-4.03267189 62.48784667 -4.05181382 60.77020335 -3.8125 57.8984375 C-4.42996094 58.36894531 -5.04742188 58.83945312 -5.68359375 59.32421875 C-14.60215964 65.88079002 -22.55269822 69.39310145 -33.8125 67.8984375 C-39.0846328 66.25861024 -42.96381104 63.71929575 -45.8125 58.8984375 C-47.82283669 53.1546184 -48.69151202 47.80390385 -46.8125 41.8984375 C-42.61521934 34.37041154 -35.80774156 31.26917539 -27.8125 28.8984375 C-20.46949838 27.26189922 -13.31979031 26.64395308 -5.8125 26.8984375 C-6.10735713 18.83876878 -6.10735713 18.83876878 -9.8125 11.8984375 C-14.5095917 9.00395775 -19.4708739 9.152926 -24.8125 9.8984375 C-27.29939761 11.01018145 -29.50334914 12.32262295 -31.8125 13.76171875 C-34.71836726 15.41329565 -36.57331174 15.72706706 -39.8125 14.8984375 C-42.25 12.1484375 -42.25 12.1484375 -43.8125 8.8984375 C-43.60093566 6.17454665 -43.10746617 5.17324653 -41.09765625 3.30078125 C-28.98873246 -4.67961668 -13.1435251 -7.98809069 0 0 Z " fill="#2C1C02" transform="translate(816.8125,958.1015625)"/>
<path d="M0 0 C5.18842426 4.52930848 9.5882828 9.5263042 10.24050903 16.61335754 C10.2338472 18.00901192 10.2338472 18.00901192 10.22705078 19.43286133 C10.22689972 20.49358353 10.22674866 21.55430573 10.22659302 22.64717102 C10.21627045 23.7806749 10.20594788 24.91417877 10.1953125 26.08203125 C10.1924826 27.25134689 10.18965271 28.42066254 10.18673706 29.62541199 C10.17555562 33.35454608 10.15045434 37.08343868 10.125 40.8125 C10.11496759 43.34309549 10.10584219 45.87369474 10.09765625 48.40429688 C10.07562292 54.60294677 10.04216534 60.80145613 10 67 C8.37509046 67.02698189 6.75005367 67.04638757 5.125 67.0625 C3.76761719 67.07990234 3.76761719 67.07990234 2.3828125 67.09765625 C0 67 0 67 -2 66 C-2.66666667 63.66666667 -3.33333333 61.33333333 -4 59 C-4.99 58.505 -4.99 58.505 -6 58 C-6 58.66 -6 59.32 -6 60 C-13.89104373 65.84286538 -22.14096811 69.08602072 -32 68 C-37.5824774 66.71713266 -41.37875568 64.55242143 -45 60 C-47.65934488 55.13981798 -49.10526837 50.51581546 -48 45 C-45.54795748 39.11509796 -41.65795447 34.89528139 -36 32 C-26.57332021 28.23587439 -16.11275156 26.61104802 -6 27 C-6.17342707 19.60415807 -6.17342707 19.60415807 -8.875 12.875 C-12.61602097 9.57409915 -16.45878451 9.61884879 -21.234375 9.6328125 C-25.23366292 10.1637914 -28.24040613 11.86205985 -31.67578125 13.90625 C-34.36552442 15.17201149 -36.06124384 15.37162307 -39 15 C-41.84775201 12.15224799 -43.16984746 9.88511389 -44 6 C-38.24341674 1.79483635 -32.90122932 -1.16583007 -26 -3 C-25.35804688 -3.18304687 -24.71609375 -3.36609375 -24.0546875 -3.5546875 C-15.78616231 -5.34672528 -7.34625763 -4.17249678 0 0 Z " fill="#2A1A02" transform="translate(606,958)"/>
<path d="M0 0 C2.58445773 -0.1081866 5.16437352 -0.18737237 7.75 -0.25 C8.47960937 -0.28351562 9.20921875 -0.31703125 9.9609375 -0.3515625 C13.28660694 -0.41202922 15.51513159 -0.31890674 18.328125 1.53125 C20.50227133 4.74167169 21.7633855 8.10696646 23 11.75 C25.21498245 18.07193262 25.21498245 18.07193262 28.0625 24.125 C30.58288429 28.81776573 32.14437688 33.89665165 33.8515625 38.92578125 C34.90689754 42.10783432 34.90689754 42.10783432 37 45 C37.47179687 43.54980469 37.47179687 43.54980469 37.953125 42.0703125 C40.07332559 35.60044783 42.22106512 29.17999034 44.828125 22.88671875 C45.82937992 20.42029413 46.78910053 17.9452082 47.734375 15.45703125 C48.0452002 14.64274658 48.35602539 13.82846191 48.67626953 12.98950195 C49.30098956 11.35021474 49.921861 9.70945487 50.53857422 8.06713867 C50.97194092 6.93562378 50.97194092 6.93562378 51.4140625 5.78125 C51.6713916 5.10126953 51.9287207 4.42128906 52.19384766 3.72070312 C53 2 53 2 55 0 C57.58064129 -0.14497985 60.04943884 -0.18677545 62.625 -0.125 C63.33140625 -0.11597656 64.0378125 -0.10695313 64.765625 -0.09765625 C66.51056098 -0.07407603 68.25532295 -0.03820461 70 0 C68.6410843 7.99101517 65.30835646 15.66021745 61.5625 22.8125 C58.98968432 27.75650005 57.13418595 32.87800202 55.23510742 38.10546875 C53.50661036 42.80528955 51.48109191 47.20951634 49.1484375 51.64453125 C47.89550794 54.21431536 46.94104938 56.80107037 46 59.5 C44.44702738 63.94771357 42.53547014 68.00493223 40.359375 72.17578125 C38.36501761 76.31923065 36.74147481 80.6010816 35.14306641 84.91113281 C32.65400153 91.42256742 32.65400153 91.42256742 30 93 C27.35003674 93.2172101 24.94923442 93.28351554 22.3125 93.1875 C21.61060547 93.17396484 20.90871094 93.16042969 20.18554688 93.14648438 C18.45670171 93.11120182 16.72825235 93.05739583 15 93 C17.12194065 87.66092352 19.25163405 82.35173741 21.92578125 77.26171875 C22.24861084 76.64506348 22.57144043 76.0284082 22.90405273 75.39306641 C23.8381573 73.63196104 24.78982991 71.88020819 25.7421875 70.12890625 C28.52543311 63.2053667 23.71269672 55.49980421 21 49 C19.79252885 46.50679568 18.52695775 44.05189366 17.25 41.59375 C15.30366289 37.5551005 13.81877174 33.35271441 12.25 29.15625 C11.13289029 26.33554799 9.89725407 23.68971408 8.5 21 C5.014358 14.2824178 2.39103677 7.17311032 0 0 Z " fill="#2B1B02" transform="translate(833,955)"/>
<path d="M0 0 C-1.32 6.93 -2.64 13.86 -4 21 C-5.85625 21.0825 -7.7125 21.165 -9.625 21.25 C-14.80534875 21.68932286 -18.07020483 22.37249677 -22 26 C-24.31361237 29.41052447 -25.55840528 32.42957582 -26.46484375 36.4375 C-26.82570068 38.01156616 -26.82570068 38.01156616 -27.19384766 39.61743164 C-27.43925293 40.7336792 -27.6846582 41.84992676 -27.9375 43 C-28.19837402 44.15685303 -28.45924805 45.31370605 -28.72802734 46.50561523 C-30.51308353 54.51854635 -32.11290283 62.55644007 -33.59692383 70.62988281 C-34.87309198 77.52266308 -36.41128533 84.33093777 -38.0703125 91.140625 C-39.09988771 95.41465989 -40.04630997 99.70839486 -41 104 C-47.27 104 -53.54 104 -60 104 C-59.60599671 98.64155526 -58.99821851 93.64720236 -57.61328125 88.453125 C-55.96184093 82.0139455 -54.70311807 75.53564786 -53.5 69 C-52.12403045 61.52537833 -50.58662234 54.15366399 -48.69628906 46.79150391 C-47.69631376 42.78248651 -46.90146656 38.74466633 -46.125 34.6875 C-43.92259351 23.42049836 -41.4688794 12.21114086 -39 1 C-32.4 1 -25.8 1 -19 1 C-19.33 3.64 -19.66 6.28 -20 9 C-19.48050781 8.51789062 -18.96101562 8.03578125 -18.42578125 7.5390625 C-11.93285739 1.65822573 -9.10582464 0 0 0 Z " fill="#2B1B02" transform="translate(782,695)"/>
<path d="M0 0 C0.5775 0.5775 1.155 1.155 1.75 1.75 C1.21930939 5.57097239 0.25298434 7.81171403 -2.25 10.75 C-5.69313025 10.33682437 -8.80876571 9.91668851 -12.0625 8.6875 C-16.41365347 7.40774898 -20.75178897 7.05968049 -25.25 7.75 C-27.58084524 8.92733884 -27.58084524 8.92733884 -29.25 10.75 C-29.58380814 14.37563814 -29.58380814 14.37563814 -29.25 17.75 C-23.63614843 20.78975834 -18.05995968 23.22358036 -12 25.25 C-5.26234364 27.57888557 -1.26040015 29.73439977 2.75 35.75 C3.63888465 43.1137076 3.88416488 50.07558565 -0.78125 56.140625 C-7.01048547 62.96627663 -13.05820978 65.08717128 -22.2421875 66.0703125 C-32.02083659 66.45129883 -40.46693982 63.63988338 -48.25 57.75 C-47.01341941 54.32562298 -45.89719559 51.30265289 -43.25 48.75 C-39.2647913 48.00856582 -36.90567318 48.82355861 -33.5 50.75 C-27.65930426 53.90531839 -21.8902296 53.4783392 -15.625 51.75 C-14.449375 51.255 -14.449375 51.255 -13.25 50.75 C-13.25 47.78 -13.25 44.81 -13.25 41.75 C-19.15048373 38.55390465 -25.19131029 36.20875881 -31.52539062 34.03271484 C-36.9248723 32.10526192 -40.58701584 29.5028752 -44.5625 25.3125 C-47.16939267 19.80905991 -47.17288997 14.72374513 -46.25 8.75 C-43.74508108 2.29392594 -39.54782088 -1.26823099 -33.49609375 -4.375 C-22.4754075 -8.66827604 -9.61139922 -6.65404562 0 0 Z " fill="#2B1B02" transform="translate(954.25,960.25)"/>
<path d="M0 0 C5.28 0 10.56 0 16 0 C16 33.33 16 66.66 16 101 C10.72 101 5.44 101 0 101 C0 67.67 0 34.34 0 0 Z " fill="#291901" transform="translate(633,924)"/>
<path d="M0 0 C1.14662109 0.00966797 1.14662109 0.00966797 2.31640625 0.01953125 C4.4375 0.1875 4.4375 0.1875 7.4375 1.1875 C7.46499766 2.56238287 7.4841164 3.93743391 7.5 5.3125 C7.51160156 6.07820312 7.52320313 6.84390625 7.53515625 7.6328125 C7.42373099 10.54769734 6.96504849 13.32129165 6.4375 16.1875 C5.00857422 16.24357422 5.00857422 16.24357422 3.55078125 16.30078125 C1.66939453 16.39939453 1.66939453 16.39939453 -0.25 16.5 C-1.49136719 16.55800781 -2.73273438 16.61601563 -4.01171875 16.67578125 C-7.80317107 17.22218417 -9.62353644 17.75922517 -12.5625 20.1875 C-16.66662106 25.98552884 -17.16258908 30.4950784 -17.171875 37.49609375 C-17.18841125 38.46281509 -17.20494751 39.42953644 -17.22198486 40.42555237 C-17.27029918 43.49210062 -17.29179921 46.55815353 -17.3125 49.625 C-17.3406735 51.71291532 -17.37060285 53.80080774 -17.40234375 55.88867188 C-17.47605389 60.98824045 -17.5257298 66.08753671 -17.5625 71.1875 C-22.8425 71.1875 -28.1225 71.1875 -33.5625 71.1875 C-33.5625 48.0875 -33.5625 24.9875 -33.5625 1.1875 C-21.5625 1.1875 -21.5625 1.1875 -19.5625 2.1875 C-18.9296875 4.47265625 -18.9296875 4.47265625 -18.4375 7.25 C-18.26992188 8.16910156 -18.10234375 9.08820312 -17.9296875 10.03515625 C-17.80851562 10.74542969 -17.68734375 11.45570313 -17.5625 12.1875 C-17.005625 11.28 -16.44875 10.3725 -15.875 9.4375 C-11.86830333 3.80646685 -7.08128958 -0.13180065 0 0 Z " fill="#281901" transform="translate(513.5625,953.8125)"/>
<path d="M0 0 C6.435 -0.1546875 6.435 -0.1546875 13 -0.3125 C14.33675781 -0.35802002 15.67351562 -0.40354004 17.05078125 -0.45043945 C24.23016398 -0.53373319 29.62032655 -0.09315522 35 5 C38.12974911 9.69462366 37.81513992 14.5137539 37 20 C34.47480584 24.91526088 31.17137445 27.26467611 26 29 C23.0456543 29.22705078 23.0456543 29.22705078 19.82421875 29.1953125 C18.25933716 29.18781982 18.25933716 29.18781982 16.6628418 29.18017578 C14.69504761 29.15286377 14.69504761 29.15286377 12.6875 29.125 C8.500625 29.08375 4.31375 29.0425 0 29 C0 19.43 0 9.86 0 0 Z " fill="#F3BB4E" transform="translate(267,982)"/>
<path d="M0 0 C5.754375 -0.0928125 5.754375 -0.0928125 11.625 -0.1875 C13.42251709 -0.22846802 13.42251709 -0.22846802 15.25634766 -0.27026367 C22.41595345 -0.32616991 27.02521363 0.10454126 32.34375 5.28125 C34.35700356 8.58602471 34.53597185 10.65101188 34.5 14.5 C34.5103125 15.6034375 34.520625 16.706875 34.53125 17.84375 C33.87331462 21.75266017 32.87017048 23.27892928 30 26 C23.88146463 29.66793863 18.04451523 29.35521085 11.0625 29.1875 C7.411875 29.125625 3.76125 29.06375 0 29 C0 19.43 0 9.86 0 0 Z " fill="#F2BB4E" transform="translate(267,940)"/>
<path d="M0 0 C2.8125 0.5 2.8125 0.5 4.8125 2.5 C5.18408453 7.6014148 4.38961692 11.94649296 3.125 16.875 C1.29242832 24.23101577 -0.23649595 31.62239983 -1.6875 39.0625 C-4.74445158 54.46211113 -4.74445158 54.46211113 -6.1875 60.75 C-6.455625 61.95140625 -6.72375 63.1528125 -7 64.390625 C-8.41518254 68.09616876 -10.15193826 69.98202252 -13.1875 72.5 C-15.875 73 -15.875 73 -18.1875 72.5 C-21.18375894 68.00561159 -20.60489753 63.90455404 -19.71386719 58.77148438 C-19.04139579 55.58587337 -18.31234598 52.41828886 -17.5625 49.25 C-17.00733472 46.85588078 -16.45401048 44.46133405 -15.90234375 42.06640625 C-15.6172998 40.83035645 -15.33225586 39.59430664 -15.03857422 38.32080078 C-14.17894311 34.46158482 -13.39286864 30.59405875 -12.62890625 26.71484375 C-12.37641113 25.45510742 -12.12391602 24.19537109 -11.86376953 22.89746094 C-11.38087147 20.47243815 -10.91121866 18.04473021 -10.45654297 15.61425781 C-7.53259151 1.18158298 -7.53259151 1.18158298 0 0 Z " fill="#F0B94D" transform="translate(407.1875,711.5)"/>
<path d="M0 0 C0.721875 0.268125 1.44375 0.53625 2.1875 0.8125 C3.30368616 4.19158496 3.05527683 6.54347325 2.33203125 10.00390625 C2.12368652 11.02186279 1.9153418 12.03981934 1.70068359 13.08862305 C1.46945801 14.17312744 1.23823242 15.25763184 1 16.375 C0.76877441 17.49237549 0.53754883 18.60975098 0.29931641 19.76098633 C-0.3963746 23.11327853 -1.10357832 26.46298441 -1.8125 29.8125 C-2.18687546 31.60662959 -2.56063363 33.40088816 -2.93359375 35.1953125 C-3.58389114 38.31698839 -4.24296033 41.43658164 -4.91015625 44.5546875 C-5.50255856 47.32675418 -6.07260687 50.10173315 -6.62109375 52.8828125 C-6.86988281 54.11773438 -7.11867188 55.35265625 -7.375 56.625 C-7.58253906 57.68332031 -7.79007812 58.74164062 -8.00390625 59.83203125 C-8.89826767 63.12863879 -10.08941061 65.86477102 -11.8125 68.8125 C-14.3125 69.875 -14.3125 69.875 -16.8125 69.8125 C-18.4753418 68.56835938 -18.4753418 68.56835938 -19.8125 66.8125 C-20.66213316 58.34445329 -17.25956041 48.62088116 -15.5 40.3125 C-15.17910286 38.7881876 -14.85830255 37.26385481 -14.53759766 35.73950195 C-14.06298059 33.48602195 -13.58749164 31.23274522 -13.10913086 28.98005676 C-12.24697001 24.9139314 -11.41956337 20.84405045 -10.63671875 16.76171875 C-10.47147705 15.93285156 -10.30623535 15.10398437 -10.13598633 14.25 C-9.84923404 12.8113995 -9.57561765 11.37007788 -9.3190918 9.92578125 C-8.26531441 4.83065198 -5.78317565 -0.38554504 0 0 Z " fill="#EEB84C" transform="translate(469.8125,713.1875)"/>
<path d="M0 0 C3.88598071 2.02532046 6.299702 4.20981609 7.90625 8.2734375 C7.90625 10.5834375 7.90625 12.8934375 7.90625 15.2734375 C-2.65375 15.2734375 -13.21375 15.2734375 -24.09375 15.2734375 C-22.92242836 8.24550763 -21.1758098 4.49538759 -15.40625 0.3359375 C-10.27164736 -1.31101052 -5.1741797 -1.79551758 0 0 Z " fill="#F1BA4D" transform="translate(444.09375,966.7265625)"/>
<path d="M0 0 C5.36787898 1.88869816 8.45991584 4.91983169 11 10 C11 11.98 11 13.96 11 16 C0.44 16 -10.12 16 -21 16 C-18.74831461 5.86741573 -18.74831461 5.86741573 -15.5 3.5 C-14.58734375 2.80390625 -14.58734375 2.80390625 -13.65625 2.09375 C-9.33112119 -0.76246714 -5.05149832 -0.42743447 0 0 Z " fill="#F1BA4D" transform="translate(369,966)"/>
<path d="M0 0 C0.91252485 10.59542744 0.91252485 10.59542744 -1.1953125 13.83984375 C-2.75 15.125 -2.75 15.125 -6 17 C-6.61488281 17.35964844 -7.22976563 17.71929688 -7.86328125 18.08984375 C-12.06234192 19.87847471 -16.54362774 19.6328576 -21 19 C-24.1875 16.9375 -24.1875 16.9375 -26 14 C-26.625 10.4375 -26.625 10.4375 -26 7 C-19.49770609 -0.55105099 -9.16400631 -0.41866019 0 0 Z " fill="#F0B94D" transform="translate(600,995)"/>
<path d="M0 0 C0.90589777 10.51847969 0.90589777 10.51847969 -1.125 13.83984375 C-6.4196739 18.37616592 -12.16663512 19.21871323 -18.8515625 19.265625 C-21.30050569 18.96284657 -22.90835421 18.29700306 -25 17 C-26.56471233 13.87057535 -26.69701958 10.38917777 -26 7 C-19.89762684 -0.6979478 -9.03565416 -0.47188136 0 0 Z " fill="#F1BA4D" transform="translate(811,995)"/>
<path d="M0 0 C-0.26554688 1.12277344 -0.53109375 2.24554687 -0.8046875 3.40234375 C-0.97476318 4.12397705 -1.14483887 4.84561035 -1.32006836 5.58911133 C-1.69092389 7.15851713 -2.06414578 8.72736559 -2.43969727 10.2956543 C-3.3906699 14.29024008 -4.23575177 18.26552478 -4.9375 22.3125 C-6 26 -6 26 -8.3125 28.5625 C-11.22931167 30.12265508 -12.75038428 30.52696471 -16 30 C-18 28 -18 28 -18.375 24.5 C-18.12686663 15.93939889 -13.72574485 8.16845709 -8 2 C-3.76056338 -1.25352113 -3.76056338 -1.25352113 0 0 Z " fill="#EFB84C" transform="translate(807,752)"/>
<path d="M0 0 C3.0625 0.375 3.0625 0.375 4.76171875 2.109375 C7.42793653 6.75323779 5.60071071 12.30105715 4.31640625 17.25 C3.60747198 19.63798912 2.84007377 22.00847114 2.0625 24.375 C-2.2275 24.375 -6.5175 24.375 -10.9375 24.375 C-8.4508301 1.07882937 -8.4508301 1.07882937 0 0 Z " fill="#EFB84C" transform="translate(573.9375,711.625)"/>
</svg>
